<svg xmlns="http://www.w3.org/2000/svg" xmlns:xlink="http://www.w3.org/1999/xlink" width="600" zoomAndPan="magnify" viewBox="0 0 450 179.999997" height="240" preserveAspectRatio="xMidYMid meet" version="1.0"><defs><clipPath id="ac1a29d267"><path d="M 8.816406 22.15625 L 120.566406 22.15625 L 120.566406 37 L 8.816406 37 Z M 8.816406 22.15625 " clip-rule="nonzero"/></clipPath><clipPath id="b146644863"><path d="M 43 33 L 98 33 L 98 42.40625 L 43 42.40625 Z M 43 33 " clip-rule="nonzero"/></clipPath><clipPath id="e89c0b22f2"><path d="M 117.488281 8 L 229.238281 8 L 229.238281 22 L 117.488281 22 Z M 117.488281 8 " clip-rule="nonzero"/></clipPath><clipPath id="9ab2ccb82b"><path d="M 151 18 L 207 18 L 207 28.089844 L 151 28.089844 Z M 151 18 " clip-rule="nonzero"/></clipPath><clipPath id="1181ac2c3d"><path d="M 18 148 L 129.75 148 L 129.75 162 L 18 162 Z M 18 148 " clip-rule="nonzero"/></clipPath><clipPath id="f686b4a887"><path d="M 52 158 L 107 158 L 107 168.070312 L 52 168.070312 Z M 52 158 " clip-rule="nonzero"/></clipPath><clipPath id="12723e5c9c"><path d="M 18 137.523438 L 129.75 137.523438 L 129.75 152 L 18 152 Z M 18 137.523438 " clip-rule="nonzero"/></clipPath><clipPath id="c7a43a273b"><path d="M 52 148 L 107 148 L 107 157.773438 L 52 157.773438 Z M 52 148 " clip-rule="nonzero"/></clipPath><clipPath id="76867c3d73"><path d="M 154.203125 42.476562 L 265.953125 42.476562 L 265.953125 57 L 154.203125 57 Z M 154.203125 42.476562 " clip-rule="nonzero"/></clipPath><clipPath id="79d62d2db6"><path d="M 188 53 L 244 53 L 244 62.726562 L 188 62.726562 Z M 188 53 " clip-rule="nonzero"/></clipPath><clipPath id="b719bbc80e"><path d="M 266.316406 69.679688 L 378 69.679688 L 378 84 L 266.316406 84 Z M 266.316406 69.679688 " clip-rule="nonzero"/></clipPath><clipPath id="0626bec8b0"><path d="M 300 80 L 356 80 L 356 89.929688 L 300 89.929688 Z M 300 80 " clip-rule="nonzero"/></clipPath><clipPath id="a2d5960881"><path d="M 317.015625 141.679688 L 428.765625 141.679688 L 428.765625 156 L 317.015625 156 Z M 317.015625 141.679688 " clip-rule="nonzero"/></clipPath><clipPath id="6b591971e2"><path d="M 351 152 L 407 152 L 407 161.929688 L 351 161.929688 Z M 351 152 " clip-rule="nonzero"/></clipPath><clipPath id="d3502d20a0"><path d="M 210.257812 121.359375 L 322 121.359375 L 322 136 L 210.257812 136 Z M 210.257812 121.359375 " clip-rule="nonzero"/></clipPath><clipPath id="0ae35b8efe"><path d="M 244 132 L 300 132 L 300 141.609375 L 244 141.609375 Z M 244 132 " clip-rule="nonzero"/></clipPath><clipPath id="1828885812"><path d="M 89.785156 90 L 201.535156 90 L 201.535156 105 L 89.785156 105 Z M 89.785156 90 " clip-rule="nonzero"/></clipPath><clipPath id="2b6890913f"><path d="M 124 101 L 179 101 L 179 110.25 L 124 110.25 Z M 124 101 " clip-rule="nonzero"/></clipPath><clipPath id="a1e6af870e"><path d="M 322.375 22.15625 L 434.125 22.15625 L 434.125 37 L 322.375 37 Z M 322.375 22.15625 " clip-rule="nonzero"/></clipPath><clipPath id="dfe6e8eba9"><path d="M 356 33 L 412 33 L 412 42.40625 L 356 42.40625 Z M 356 33 " clip-rule="nonzero"/></clipPath></defs><rect x="-45" width="540" fill="#ffffff" y="-18" height="215.999996" fill-opacity="1"/><rect x="-45" width="540" fill="#77cdff" y="-18" height="215.999996" fill-opacity="1"/><g clip-path="url(#ac1a29d267)"><path fill="#21b8ed" d="M 120.480469 32.460938 C 118.769531 33.070312 116.964844 33.484375 115.117188 33.660156 C 113.273438 33.835938 111.371094 33.796875 109.511719 33.445312 C 107.652344 33.121094 105.820312 32.515625 104.082031 31.679688 C 103.21875 31.25 102.382812 30.765625 101.589844 30.210938 C 101.226562 29.957031 100.875 29.6875 100.523438 29.402344 C 99.121094 30.964844 97.492188 32.410156 95.539062 33.484375 C 93.152344 34.832031 90.226562 35.507812 87.398438 35.183594 C 84.570312 34.875 81.953125 33.742188 79.71875 32.273438 C 78.597656 31.53125 77.546875 30.710938 76.5625 29.820312 C 76.214844 29.5 75.875 29.160156 75.539062 28.824219 C 73.734375 30.507812 71.753906 32.058594 69.527344 33.339844 C 66.605469 35.0625 63.128906 36.25 59.488281 36.234375 C 55.851562 36.25 52.292969 34.953125 49.449219 32.988281 C 48.023438 32.003906 46.726562 30.871094 45.554688 29.632812 C 44.976562 29.011719 44.421875 28.367188 43.910156 27.707031 C 43.898438 27.691406 43.882812 27.664062 43.871094 27.652344 C 43.222656 28.230469 42.535156 28.785156 41.835938 29.308594 C 40.460938 30.359375 38.980469 31.304688 37.429688 32.070312 C 34.316406 33.660156 30.867188 34.550781 27.417969 34.683594 C 23.964844 34.847656 20.558594 34.160156 17.417969 33.015625 C 14.304688 31.816406 11.378906 30.160156 8.902344 28.003906 C 10.316406 28.839844 11.785156 29.511719 13.292969 30.105469 C 14.789062 30.695312 16.324219 31.167969 17.875 31.519531 C 20.976562 32.261719 24.140625 32.421875 27.1875 32.015625 C 30.234375 31.601562 33.128906 30.523438 35.730469 28.972656 C 38.34375 27.421875 40.648438 25.347656 42.699219 23.058594 C 43.453125 22.222656 44.734375 22.15625 45.570312 22.894531 C 45.691406 23.003906 45.8125 23.140625 45.890625 23.273438 L 45.988281 23.410156 C 46.121094 23.625 46.363281 23.945312 46.566406 24.203125 C 46.78125 24.484375 46.996094 24.753906 47.238281 25.023438 C 47.699219 25.5625 48.183594 26.089844 48.695312 26.589844 C 49.707031 27.585938 50.796875 28.472656 51.957031 29.214844 C 54.273438 30.710938 56.863281 31.546875 59.476562 31.503906 C 62.089844 31.503906 64.71875 30.601562 67.171875 29.214844 C 69.625 27.8125 71.886719 25.941406 74.003906 23.851562 L 74.042969 23.8125 C 74.945312 22.921875 76.402344 22.9375 77.277344 23.839844 C 77.359375 23.921875 77.441406 24.015625 77.492188 24.09375 C 77.601562 24.242188 77.789062 24.484375 77.964844 24.6875 C 78.140625 24.890625 78.316406 25.105469 78.503906 25.308594 C 78.882812 25.710938 79.257812 26.117188 79.664062 26.507812 C 80.457031 27.289062 81.308594 28.003906 82.195312 28.636719 C 83.976562 29.902344 85.917969 30.859375 87.925781 31.167969 C 89.933594 31.519531 91.992188 31.195312 93.933594 30.320312 C 94.90625 29.890625 95.847656 29.296875 96.738281 28.621094 C 97.640625 27.960938 98.488281 27.195312 99.296875 26.371094 L 99.40625 26.265625 C 99.945312 25.710938 100.820312 25.710938 101.359375 26.25 C 101.398438 26.292969 101.453125 26.34375 101.496094 26.398438 C 101.683594 26.640625 101.992188 26.980469 102.277344 27.261719 C 102.574219 27.558594 102.882812 27.839844 103.207031 28.109375 C 103.851562 28.648438 104.539062 29.160156 105.269531 29.605469 C 106.695312 30.535156 108.273438 31.289062 109.929688 31.789062 C 111.585938 32.300781 113.339844 32.636719 115.117188 32.71875 C 116.871094 32.8125 118.675781 32.730469 120.480469 32.460938 Z M 120.480469 32.460938 " fill-opacity="1" fill-rule="nonzero"/></g><g clip-path="url(#b146644863)"><path fill="#0081c9" d="M 97.816406 38 C 96.964844 38.457031 96.089844 38.941406 95.1875 39.332031 L 93.800781 39.859375 L 93.097656 40.113281 C 92.855469 40.195312 92.613281 40.25 92.371094 40.316406 L 90.902344 40.679688 C 90.402344 40.789062 89.90625 40.828125 89.40625 40.910156 L 88.652344 41.003906 C 88.394531 41.03125 88.140625 41.03125 87.882812 41.042969 C 87.371094 41.058594 86.859375 41.085938 86.332031 41.070312 C 84.273438 40.992188 82.195312 40.601562 80.214844 39.871094 C 79.21875 39.507812 78.261719 39.050781 77.332031 38.523438 C 76.902344 38.253906 76.457031 37.984375 76.039062 37.691406 C 73.894531 39.226562 71.496094 40.492188 68.9375 41.300781 C 67.398438 41.800781 65.808594 42.082031 64.21875 42.257812 C 62.617188 42.40625 61.011719 42.390625 59.4375 42.214844 C 56.28125 41.894531 53.261719 40.921875 50.515625 39.5625 C 47.777344 38.1875 45.230469 36.4375 43.183594 34.226562 C 45.867188 35.5625 48.601562 36.597656 51.363281 37.378906 C 54.125 38.132812 56.914062 38.605469 59.664062 38.621094 C 61.039062 38.621094 62.402344 38.550781 63.734375 38.335938 C 65.070312 38.121094 66.390625 37.8125 67.65625 37.378906 C 70.203125 36.515625 72.601562 35.195312 74.824219 33.582031 L 74.839844 33.582031 C 75.675781 32.972656 76.804688 33.082031 77.507812 33.78125 L 77.667969 33.945312 C 77.734375 34.011719 77.804688 34.078125 77.882812 34.144531 C 78.03125 34.28125 78.179688 34.414062 78.355469 34.550781 C 78.664062 34.820312 79.03125 35.0625 79.367188 35.320312 C 80.082031 35.777344 80.820312 36.25 81.617188 36.613281 C 83.179688 37.378906 84.878906 37.945312 86.644531 38.296875 C 87.53125 38.429688 88.421875 38.605469 89.339844 38.632812 C 89.796875 38.660156 90.253906 38.714844 90.714844 38.714844 L 92.113281 38.6875 C 92.34375 38.6875 92.585938 38.6875 92.816406 38.671875 L 93.515625 38.605469 L 94.945312 38.484375 C 95.886719 38.296875 96.832031 38.121094 97.816406 38 Z M 97.816406 38 " fill-opacity="1" fill-rule="nonzero"/></g><g clip-path="url(#e89c0b22f2)"><path fill="#21b8ed" d="M 229.15625 18.148438 C 227.445312 18.753906 225.636719 19.171875 223.792969 19.34375 C 221.945312 19.519531 220.046875 19.480469 218.1875 19.128906 C 216.328125 18.808594 214.492188 18.199219 212.753906 17.363281 C 211.894531 16.933594 211.058594 16.449219 210.261719 15.898438 C 209.898438 15.640625 209.546875 15.371094 209.199219 15.089844 C 207.796875 16.652344 206.164062 18.09375 204.210938 19.171875 C 201.828125 20.519531 198.902344 21.191406 196.070312 20.867188 C 193.242188 20.558594 190.628906 19.425781 188.390625 17.957031 C 187.273438 17.21875 186.222656 16.394531 185.238281 15.503906 C 184.886719 15.183594 184.550781 14.84375 184.214844 14.507812 C 182.40625 16.191406 180.425781 17.742188 178.203125 19.023438 C 175.277344 20.746094 171.800781 21.933594 168.164062 21.917969 C 164.523438 21.933594 160.96875 20.640625 158.125 18.671875 C 156.695312 17.6875 155.402344 16.558594 154.230469 15.316406 C 153.648438 14.699219 153.097656 14.050781 152.585938 13.390625 C 152.570312 13.378906 152.558594 13.351562 152.542969 13.335938 C 151.898438 13.914062 151.210938 14.46875 150.507812 14.992188 C 149.136719 16.042969 147.652344 16.988281 146.101562 17.753906 C 142.988281 19.34375 139.539062 20.234375 136.089844 20.371094 C 132.640625 20.53125 129.230469 19.84375 126.089844 18.699219 C 122.976562 17.5 120.054688 15.84375 117.574219 13.6875 C 118.988281 14.523438 120.457031 15.195312 121.96875 15.789062 C 123.464844 16.382812 125 16.851562 126.550781 17.203125 C 129.648438 17.945312 132.816406 18.105469 135.859375 17.703125 C 138.90625 17.285156 141.804688 16.207031 144.40625 14.65625 C 147.019531 13.109375 149.324219 11.03125 151.371094 8.742188 C 152.125 7.90625 153.40625 7.839844 154.242188 8.582031 C 154.363281 8.6875 154.484375 8.824219 154.566406 8.957031 L 154.660156 9.09375 C 154.796875 9.308594 155.039062 9.632812 155.238281 9.886719 C 155.457031 10.171875 155.671875 10.441406 155.914062 10.710938 C 156.371094 11.25 156.855469 11.773438 157.367188 12.273438 C 158.378906 13.269531 159.472656 14.160156 160.628906 14.898438 C 162.949219 16.394531 165.535156 17.230469 168.148438 17.191406 C 170.765625 17.191406 173.390625 16.289062 175.84375 14.898438 C 178.296875 13.5 180.5625 11.625 182.675781 9.539062 L 182.71875 9.496094 C 183.621094 8.609375 185.074219 8.621094 185.953125 9.523438 C 186.03125 9.605469 186.113281 9.699219 186.167969 9.78125 C 186.273438 9.929688 186.464844 10.171875 186.640625 10.371094 C 186.8125 10.574219 186.988281 10.789062 187.179688 10.992188 C 187.554688 11.398438 187.933594 11.800781 188.335938 12.191406 C 189.132812 12.972656 189.980469 13.6875 190.871094 14.320312 C 192.648438 15.585938 194.589844 16.542969 196.597656 16.851562 C 198.605469 17.203125 200.667969 16.878906 202.609375 16.003906 C 203.578125 15.574219 204.523438 14.980469 205.410156 14.308594 C 206.3125 13.648438 207.164062 12.878906 207.972656 12.058594 L 208.078125 11.949219 C 208.617188 11.398438 209.496094 11.398438 210.035156 11.933594 C 210.074219 11.976562 210.128906 12.03125 210.167969 12.082031 C 210.355469 12.324219 210.667969 12.664062 210.949219 12.945312 C 211.246094 13.242188 211.554688 13.523438 211.878906 13.792969 C 212.527344 14.332031 213.214844 14.84375 213.941406 15.289062 C 215.371094 16.21875 216.945312 16.972656 218.605469 17.472656 C 220.261719 17.984375 222.011719 18.320312 223.792969 18.402344 C 225.542969 18.496094 227.351562 18.414062 229.15625 18.148438 Z M 229.15625 18.148438 " fill-opacity="1" fill-rule="nonzero"/></g><g clip-path="url(#9ab2ccb82b)"><path fill="#0081c9" d="M 206.488281 23.683594 C 205.640625 24.140625 204.765625 24.628906 203.859375 25.019531 L 202.472656 25.542969 L 201.773438 25.800781 C 201.53125 25.878906 201.289062 25.933594 201.042969 26 L 199.574219 26.363281 C 199.078125 26.472656 198.578125 26.511719 198.078125 26.59375 L 197.324219 26.6875 C 197.070312 26.714844 196.8125 26.714844 196.558594 26.730469 C 196.046875 26.742188 195.53125 26.769531 195.007812 26.753906 C 192.945312 26.675781 190.871094 26.285156 188.890625 25.558594 C 187.890625 25.191406 186.933594 24.734375 186.003906 24.210938 C 185.574219 23.941406 185.128906 23.671875 184.710938 23.375 C 182.570312 24.910156 180.171875 26.175781 177.609375 26.984375 C 176.074219 27.484375 174.484375 27.765625 172.894531 27.941406 C 171.289062 28.089844 169.6875 28.074219 168.109375 27.902344 C 164.957031 27.578125 161.9375 26.609375 159.1875 25.246094 C 156.453125 23.871094 153.90625 22.121094 151.855469 19.910156 C 154.539062 21.246094 157.273438 22.28125 160.039062 23.0625 C 162.800781 23.820312 165.589844 24.289062 168.339844 24.304688 C 169.714844 24.304688 171.074219 24.238281 172.40625 24.019531 C 173.742188 23.804688 175.0625 23.496094 176.328125 23.0625 C 178.875 22.203125 181.277344 20.882812 183.5 19.265625 L 183.511719 19.265625 C 184.347656 18.660156 185.480469 18.765625 186.179688 19.46875 L 186.34375 19.628906 C 186.410156 19.695312 186.476562 19.761719 186.558594 19.832031 C 186.707031 19.964844 186.855469 20.101562 187.03125 20.234375 C 187.339844 20.503906 187.703125 20.746094 188.039062 21.003906 C 188.753906 21.460938 189.496094 21.933594 190.289062 22.296875 C 191.855469 23.0625 193.550781 23.628906 195.316406 23.980469 C 196.207031 24.113281 197.097656 24.289062 198.011719 24.316406 C 198.472656 24.34375 198.929688 24.398438 199.386719 24.398438 L 200.789062 24.371094 C 201.019531 24.371094 201.261719 24.371094 201.488281 24.359375 L 202.191406 24.289062 L 203.617188 24.167969 C 204.5625 23.980469 205.503906 23.804688 206.488281 23.683594 Z M 206.488281 23.683594 " fill-opacity="1" fill-rule="nonzero"/></g><g clip-path="url(#1181ac2c3d)"><path fill="#21b8ed" d="M 129.664062 158.128906 C 127.953125 158.734375 126.148438 159.152344 124.300781 159.328125 C 122.457031 159.5 120.554688 159.460938 118.695312 159.109375 C 116.835938 158.789062 115.003906 158.179688 113.265625 157.347656 C 112.402344 156.914062 111.566406 156.429688 110.773438 155.878906 C 110.410156 155.621094 110.058594 155.351562 109.707031 155.070312 C 108.304688 156.632812 106.675781 158.074219 104.722656 159.152344 C 102.335938 160.5 99.410156 161.171875 96.582031 160.847656 C 93.753906 160.539062 91.136719 159.40625 88.902344 157.9375 C 87.78125 157.199219 86.730469 156.375 85.746094 155.488281 C 85.398438 155.164062 85.058594 154.828125 84.722656 154.488281 C 82.917969 156.175781 80.9375 157.722656 78.714844 159.003906 C 75.789062 160.726562 72.3125 161.914062 68.671875 161.898438 C 65.035156 161.914062 61.476562 160.621094 58.632812 158.652344 C 57.207031 157.667969 55.910156 156.539062 54.738281 155.296875 C 54.160156 154.679688 53.605469 154.03125 53.09375 153.371094 C 53.082031 153.359375 53.066406 153.332031 53.054688 153.316406 C 52.40625 153.898438 51.71875 154.449219 51.019531 154.976562 C 49.644531 156.027344 48.164062 156.96875 46.613281 157.738281 C 43.5 159.328125 40.050781 160.214844 36.601562 160.351562 C 33.152344 160.511719 29.742188 159.824219 26.601562 158.679688 C 23.488281 157.480469 20.5625 155.824219 18.085938 153.667969 C 19.5 154.503906 20.96875 155.175781 22.476562 155.769531 C 23.972656 156.363281 25.507812 156.835938 27.058594 157.183594 C 30.160156 157.925781 33.324219 158.085938 36.371094 157.683594 C 39.417969 157.265625 42.3125 156.1875 44.914062 154.636719 C 47.53125 153.089844 49.832031 151.015625 51.882812 148.722656 C 52.636719 147.886719 53.917969 147.820312 54.753906 148.5625 C 54.875 148.667969 54.996094 148.804688 55.074219 148.9375 L 55.171875 149.074219 C 55.304688 149.289062 55.546875 149.613281 55.75 149.867188 C 55.964844 150.152344 56.179688 150.421875 56.421875 150.691406 C 56.882812 151.230469 57.367188 151.753906 57.878906 152.253906 C 58.890625 153.25 59.980469 154.140625 61.140625 154.878906 C 63.457031 156.375 66.046875 157.210938 68.660156 157.171875 C 71.273438 157.171875 73.902344 156.269531 76.355469 154.878906 C 78.808594 153.480469 81.070312 151.605469 83.1875 149.519531 L 83.226562 149.476562 C 84.128906 148.589844 85.585938 148.601562 86.460938 149.503906 C 86.542969 149.585938 86.625 149.679688 86.675781 149.761719 C 86.785156 149.910156 86.972656 150.152344 87.148438 150.355469 C 87.324219 150.554688 87.5 150.769531 87.6875 150.972656 C 88.066406 151.378906 88.441406 151.78125 88.847656 152.171875 C 89.640625 152.953125 90.492188 153.667969 91.378906 154.300781 C 93.160156 155.566406 95.101562 156.523438 97.109375 156.835938 C 99.117188 157.183594 101.175781 156.859375 103.117188 155.984375 C 104.089844 155.554688 105.03125 154.960938 105.921875 154.289062 C 106.824219 153.628906 107.671875 152.859375 108.480469 152.039062 L 108.589844 151.929688 C 109.128906 151.378906 110.003906 151.378906 110.542969 151.917969 C 110.582031 151.957031 110.636719 152.011719 110.679688 152.066406 C 110.867188 152.308594 111.175781 152.644531 111.460938 152.925781 C 111.757812 153.222656 112.066406 153.507812 112.390625 153.777344 C 113.035156 154.316406 113.722656 154.828125 114.453125 155.269531 C 115.878906 156.199219 117.457031 156.957031 119.113281 157.453125 C 120.773438 157.964844 122.523438 158.304688 124.300781 158.382812 C 126.054688 158.476562 127.859375 158.398438 129.664062 158.128906 Z M 129.664062 158.128906 " fill-opacity="1" fill-rule="nonzero"/></g><g clip-path="url(#f686b4a887)"><path fill="#0081c9" d="M 107 163.664062 C 106.148438 164.125 105.273438 164.609375 104.371094 165 L 102.984375 165.523438 L 102.28125 165.78125 C 102.039062 165.859375 101.796875 165.914062 101.554688 165.980469 L 100.085938 166.347656 C 99.585938 166.453125 99.089844 166.496094 98.589844 166.574219 L 97.835938 166.667969 C 97.578125 166.695312 97.324219 166.695312 97.066406 166.710938 C 96.554688 166.722656 96.042969 166.75 95.515625 166.738281 C 93.457031 166.65625 91.378906 166.265625 89.398438 165.539062 C 88.402344 165.175781 87.445312 164.714844 86.515625 164.191406 C 86.085938 163.921875 85.640625 163.652344 85.222656 163.355469 C 83.078125 164.890625 80.679688 166.15625 78.121094 166.964844 C 76.582031 167.464844 74.992188 167.746094 73.402344 167.921875 C 71.800781 168.070312 70.195312 168.058594 68.621094 167.882812 C 65.464844 167.558594 62.449219 166.589844 59.699219 165.226562 C 56.960938 163.855469 54.414062 162.101562 52.367188 159.894531 C 55.050781 161.226562 57.785156 162.265625 60.546875 163.046875 C 63.308594 163.800781 66.097656 164.269531 68.847656 164.285156 C 70.222656 164.285156 71.585938 164.21875 72.917969 164 C 74.253906 163.785156 75.574219 163.476562 76.839844 163.046875 C 79.386719 162.183594 81.785156 160.863281 84.007812 159.246094 L 84.023438 159.246094 C 84.859375 158.640625 85.988281 158.746094 86.691406 159.449219 L 86.851562 159.609375 C 86.917969 159.675781 86.988281 159.746094 87.066406 159.8125 C 87.214844 159.945312 87.363281 160.082031 87.539062 160.214844 C 87.851562 160.484375 88.214844 160.726562 88.550781 160.984375 C 89.265625 161.441406 90.003906 161.914062 90.800781 162.277344 C 92.363281 163.046875 94.0625 163.609375 95.828125 163.960938 C 96.71875 164.097656 97.605469 164.269531 98.523438 164.296875 C 98.980469 164.324219 99.4375 164.378906 99.898438 164.378906 L 101.296875 164.351562 C 101.527344 164.351562 101.769531 164.351562 102 164.339844 L 102.699219 164.269531 L 104.128906 164.148438 C 105.070312 163.960938 106.015625 163.785156 107 163.664062 Z M 107 163.664062 " fill-opacity="1" fill-rule="nonzero"/></g><g clip-path="url(#12723e5c9c)"><path fill="#21b8ed" d="M 129.664062 147.832031 C 127.953125 148.4375 126.148438 148.855469 124.300781 149.03125 C 122.457031 149.207031 120.554688 149.164062 118.695312 148.8125 C 116.835938 148.492188 115.003906 147.882812 113.265625 147.050781 C 112.402344 146.617188 111.566406 146.132812 110.773438 145.582031 C 110.410156 145.324219 110.058594 145.054688 109.707031 144.773438 C 108.304688 146.335938 106.675781 147.777344 104.722656 148.855469 C 102.335938 150.203125 99.410156 150.875 96.582031 150.550781 C 93.753906 150.242188 91.136719 149.109375 88.902344 147.640625 C 87.78125 146.902344 86.730469 146.078125 85.746094 145.191406 C 85.398438 144.867188 85.058594 144.53125 84.722656 144.191406 C 82.917969 145.878906 80.9375 147.425781 78.714844 148.707031 C 75.789062 150.429688 72.3125 151.617188 68.671875 151.601562 C 65.035156 151.617188 61.476562 150.324219 58.632812 148.355469 C 57.207031 147.371094 55.910156 146.242188 54.738281 145 C 54.160156 144.382812 53.605469 143.734375 53.09375 143.074219 C 53.082031 143.0625 53.066406 143.035156 53.054688 143.019531 C 52.40625 143.601562 51.71875 144.152344 51.019531 144.679688 C 49.644531 145.730469 48.164062 146.671875 46.613281 147.441406 C 43.5 149.03125 40.050781 149.917969 36.601562 150.054688 C 33.152344 150.214844 29.742188 149.527344 26.601562 148.382812 C 23.488281 147.183594 20.5625 145.527344 18.085938 143.371094 C 19.5 144.207031 20.96875 144.878906 22.476562 145.472656 C 23.972656 146.066406 25.507812 146.539062 27.058594 146.886719 C 30.160156 147.628906 33.324219 147.789062 36.371094 147.386719 C 39.417969 146.96875 42.3125 145.890625 44.914062 144.339844 C 47.53125 142.792969 49.832031 140.71875 51.882812 138.425781 C 52.636719 137.589844 53.917969 137.523438 54.753906 138.265625 C 54.875 138.371094 54.996094 138.507812 55.074219 138.640625 L 55.171875 138.777344 C 55.304688 138.992188 55.546875 139.316406 55.75 139.570312 C 55.964844 139.855469 56.179688 140.125 56.421875 140.394531 C 56.882812 140.933594 57.367188 141.457031 57.878906 141.957031 C 58.890625 142.953125 59.980469 143.84375 61.140625 144.582031 C 63.457031 146.078125 66.046875 146.914062 68.660156 146.875 C 71.273438 146.875 73.902344 145.972656 76.355469 144.582031 C 78.808594 143.183594 81.070312 141.308594 83.1875 139.222656 L 83.226562 139.179688 C 84.128906 138.292969 85.585938 138.304688 86.460938 139.207031 C 86.542969 139.289062 86.625 139.382812 86.675781 139.464844 C 86.785156 139.613281 86.972656 139.855469 87.148438 140.058594 C 87.324219 140.257812 87.5 140.472656 87.6875 140.675781 C 88.066406 141.082031 88.441406 141.484375 88.847656 141.875 C 89.640625 142.65625 90.492188 143.371094 91.378906 144.003906 C 93.160156 145.269531 95.101562 146.226562 97.109375 146.539062 C 99.117188 146.886719 101.175781 146.5625 103.117188 145.6875 C 104.089844 145.257812 105.03125 144.664062 105.921875 143.992188 C 106.824219 143.332031 107.671875 142.5625 108.480469 141.742188 L 108.589844 141.632812 C 109.128906 141.082031 110.003906 141.082031 110.542969 141.621094 C 110.582031 141.660156 110.636719 141.714844 110.679688 141.769531 C 110.867188 142.011719 111.175781 142.347656 111.460938 142.628906 C 111.757812 142.925781 112.066406 143.210938 112.390625 143.480469 C 113.035156 144.019531 113.722656 144.53125 114.453125 144.972656 C 115.878906 145.902344 117.457031 146.660156 119.113281 147.15625 C 120.773438 147.667969 122.523438 148.007812 124.300781 148.085938 C 126.054688 148.179688 127.859375 148.101562 129.664062 147.832031 Z M 129.664062 147.832031 " fill-opacity="1" fill-rule="nonzero"/></g><g clip-path="url(#c7a43a273b)"><path fill="#0081c9" d="M 107 153.367188 C 106.148438 153.828125 105.273438 154.3125 104.371094 154.703125 L 102.984375 155.226562 L 102.28125 155.484375 C 102.039062 155.5625 101.796875 155.617188 101.554688 155.6875 L 100.085938 156.050781 C 99.585938 156.15625 99.089844 156.199219 98.589844 156.277344 L 97.835938 156.371094 C 97.578125 156.398438 97.324219 156.398438 97.066406 156.414062 C 96.554688 156.425781 96.042969 156.453125 95.515625 156.441406 C 93.457031 156.359375 91.378906 155.96875 89.398438 155.242188 C 88.402344 154.878906 87.445312 154.417969 86.515625 153.894531 C 86.085938 153.625 85.640625 153.355469 85.222656 153.058594 C 83.078125 154.59375 80.679688 155.859375 78.121094 156.667969 C 76.582031 157.167969 74.992188 157.449219 73.402344 157.625 C 71.800781 157.773438 70.195312 157.761719 68.621094 157.585938 C 65.464844 157.261719 62.449219 156.292969 59.699219 154.929688 C 56.960938 153.558594 54.414062 151.804688 52.367188 149.597656 C 55.050781 150.929688 57.785156 151.96875 60.546875 152.75 C 63.308594 153.503906 66.097656 153.972656 68.847656 153.988281 C 70.222656 153.988281 71.585938 153.921875 72.917969 153.707031 C 74.253906 153.488281 75.574219 153.179688 76.839844 152.75 C 79.386719 151.886719 81.785156 150.566406 84.007812 148.949219 L 84.023438 148.949219 C 84.859375 148.34375 85.988281 148.449219 86.691406 149.152344 L 86.851562 149.3125 C 86.917969 149.378906 86.988281 149.449219 87.066406 149.515625 C 87.214844 149.648438 87.363281 149.785156 87.539062 149.917969 C 87.851562 150.1875 88.214844 150.429688 88.550781 150.6875 C 89.265625 151.144531 90.003906 151.617188 90.800781 151.980469 C 92.363281 152.75 94.0625 153.3125 95.828125 153.664062 C 96.71875 153.800781 97.605469 153.972656 98.523438 154 C 98.980469 154.027344 99.4375 154.082031 99.898438 154.082031 L 101.296875 154.054688 C 101.527344 154.054688 101.769531 154.054688 102 154.042969 L 102.699219 153.972656 L 104.128906 153.851562 C 105.070312 153.664062 106.015625 153.488281 107 153.367188 Z M 107 153.367188 " fill-opacity="1" fill-rule="nonzero"/></g><g clip-path="url(#76867c3d73)"><path fill="#21b8ed" d="M 265.867188 52.78125 C 264.15625 53.390625 262.351562 53.808594 260.503906 53.980469 C 258.65625 54.15625 256.757812 54.117188 254.898438 53.765625 C 253.039062 53.441406 251.207031 52.835938 249.46875 52 C 248.605469 51.570312 247.769531 51.085938 246.972656 50.53125 C 246.609375 50.277344 246.261719 50.007812 245.910156 49.722656 C 244.507812 51.289062 242.878906 52.730469 240.921875 53.808594 C 238.539062 55.152344 235.613281 55.828125 232.785156 55.503906 C 229.953125 55.195312 227.339844 54.0625 225.101562 52.59375 C 223.984375 51.851562 222.933594 51.03125 221.949219 50.140625 C 221.597656 49.820312 221.261719 49.480469 220.925781 49.144531 C 219.121094 50.828125 217.136719 52.378906 214.914062 53.660156 C 211.992188 55.382812 208.515625 56.570312 204.875 56.554688 C 201.238281 56.570312 197.679688 55.277344 194.835938 53.308594 C 193.40625 52.324219 192.113281 51.191406 190.941406 49.953125 C 190.363281 49.332031 189.808594 48.6875 189.296875 48.027344 C 189.285156 48.011719 189.269531 47.988281 189.257812 47.972656 C 188.609375 48.550781 187.921875 49.105469 187.222656 49.628906 C 185.847656 50.679688 184.363281 51.625 182.816406 52.390625 C 179.703125 53.980469 176.253906 54.871094 172.800781 55.007812 C 169.351562 55.167969 165.941406 54.480469 162.804688 53.335938 C 159.691406 52.136719 156.765625 50.480469 154.285156 48.324219 C 155.699219 49.160156 157.171875 49.832031 158.679688 50.425781 C 160.175781 51.019531 161.710938 51.488281 163.261719 51.839844 C 166.359375 52.582031 169.527344 52.742188 172.574219 52.339844 C 175.617188 51.921875 178.515625 50.84375 181.117188 49.292969 C 183.730469 47.742188 186.035156 45.667969 188.085938 43.378906 C 188.839844 42.542969 190.117188 42.476562 190.953125 43.21875 C 191.074219 43.324219 191.195312 43.460938 191.277344 43.59375 L 191.371094 43.730469 C 191.507812 43.945312 191.75 44.269531 191.953125 44.523438 C 192.167969 44.808594 192.382812 45.078125 192.625 45.347656 C 193.082031 45.882812 193.570312 46.410156 194.082031 46.910156 C 195.089844 47.90625 196.183594 48.792969 197.34375 49.535156 C 199.660156 51.03125 202.246094 51.867188 204.863281 51.828125 C 207.476562 51.828125 210.105469 50.921875 212.554688 49.535156 C 215.007812 48.132812 217.273438 46.261719 219.390625 44.171875 L 219.429688 44.132812 C 220.332031 43.242188 221.789062 43.257812 222.664062 44.160156 C 222.746094 44.242188 222.824219 44.335938 222.878906 44.417969 C 222.988281 44.5625 223.175781 44.808594 223.351562 45.007812 C 223.527344 45.210938 223.699219 45.425781 223.890625 45.628906 C 224.265625 46.03125 224.644531 46.4375 225.046875 46.828125 C 225.84375 47.609375 226.691406 48.324219 227.582031 48.957031 C 229.359375 50.222656 231.300781 51.179688 233.308594 51.488281 C 235.316406 51.839844 237.378906 51.515625 239.320312 50.640625 C 240.289062 50.210938 241.234375 49.617188 242.121094 48.941406 C 243.027344 48.28125 243.875 47.515625 244.683594 46.691406 L 244.792969 46.585938 C 245.332031 46.03125 246.207031 46.03125 246.746094 46.570312 C 246.785156 46.613281 246.839844 46.667969 246.878906 46.71875 C 247.070312 46.960938 247.378906 47.300781 247.660156 47.582031 C 247.957031 47.878906 248.269531 48.160156 248.589844 48.429688 C 249.238281 48.96875 249.925781 49.480469 250.652344 49.925781 C 252.082031 50.855469 253.660156 51.609375 255.316406 52.109375 C 256.972656 52.621094 258.726562 52.957031 260.503906 53.039062 C 262.257812 53.132812 264.0625 53.050781 265.867188 52.78125 Z M 265.867188 52.78125 " fill-opacity="1" fill-rule="nonzero"/></g><g clip-path="url(#79d62d2db6)"><path fill="#0081c9" d="M 243.199219 58.320312 C 242.351562 58.777344 241.476562 59.261719 240.574219 59.652344 L 239.183594 60.179688 L 238.484375 60.4375 C 238.242188 60.515625 238 60.570312 237.757812 60.636719 L 236.289062 61 C 235.789062 61.109375 235.289062 61.148438 234.792969 61.230469 L 234.039062 61.324219 C 233.78125 61.351562 233.523438 61.351562 233.269531 61.367188 C 232.757812 61.378906 232.246094 61.40625 231.71875 61.390625 C 229.65625 61.3125 227.582031 60.921875 225.601562 60.191406 C 224.605469 59.828125 223.648438 59.371094 222.71875 58.847656 C 222.285156 58.578125 221.839844 58.308594 221.421875 58.011719 C 219.28125 59.546875 216.882812 60.8125 214.320312 61.621094 C 212.785156 62.121094 211.195312 62.402344 209.605469 62.578125 C 208 62.726562 206.398438 62.710938 204.820312 62.539062 C 201.667969 62.214844 198.648438 61.242188 195.898438 59.882812 C 193.164062 58.507812 190.617188 56.757812 188.570312 54.546875 C 191.25 55.882812 193.988281 56.917969 196.75 57.699219 C 199.511719 58.453125 202.300781 58.925781 205.050781 58.941406 C 206.425781 58.941406 207.785156 58.871094 209.121094 58.65625 C 210.453125 58.441406 211.773438 58.132812 213.042969 57.699219 C 215.589844 56.839844 217.988281 55.519531 220.210938 53.902344 L 220.222656 53.902344 C 221.058594 53.292969 222.191406 53.402344 222.894531 54.101562 L 223.054688 54.265625 C 223.121094 54.332031 223.1875 54.398438 223.269531 54.46875 C 223.417969 54.601562 223.566406 54.738281 223.742188 54.871094 C 224.050781 55.140625 224.414062 55.382812 224.753906 55.640625 C 225.464844 56.097656 226.207031 56.570312 227.003906 56.933594 C 228.566406 57.699219 230.265625 58.265625 232.03125 58.617188 C 232.917969 58.75 233.808594 58.925781 234.722656 58.953125 C 235.183594 58.980469 235.640625 59.035156 236.097656 59.035156 L 237.5 59.007812 C 237.730469 59.007812 237.972656 59.007812 238.203125 58.992188 L 238.902344 58.925781 L 240.332031 58.804688 C 241.273438 58.617188 242.21875 58.441406 243.199219 58.320312 Z M 243.199219 58.320312 " fill-opacity="1" fill-rule="nonzero"/></g><g clip-path="url(#b719bbc80e)"><path fill="#21b8ed" d="M 377.980469 79.984375 C 376.269531 80.59375 374.464844 81.011719 372.617188 81.183594 C 370.773438 81.359375 368.871094 81.320312 367.011719 80.96875 C 365.152344 80.644531 363.320312 80.039062 361.582031 79.203125 C 360.71875 78.773438 359.882812 78.289062 359.089844 77.734375 C 358.726562 77.480469 358.375 77.210938 358.023438 76.929688 C 356.621094 78.492188 354.992188 79.933594 353.039062 81.011719 C 350.652344 82.355469 347.726562 83.03125 344.898438 82.707031 C 342.070312 82.398438 339.453125 81.265625 337.21875 79.796875 C 336.097656 79.054688 335.046875 78.234375 334.0625 77.34375 C 333.714844 77.023438 333.375 76.683594 333.039062 76.347656 C 331.234375 78.03125 329.253906 79.582031 327.027344 80.863281 C 324.105469 82.585938 320.628906 83.773438 316.988281 83.757812 C 313.351562 83.773438 309.792969 82.480469 306.949219 80.511719 C 305.523438 79.527344 304.226562 78.394531 303.054688 77.15625 C 302.476562 76.535156 301.921875 75.890625 301.410156 75.230469 C 301.398438 75.214844 301.382812 75.191406 301.371094 75.175781 C 300.722656 75.753906 300.035156 76.308594 299.335938 76.832031 C 297.960938 77.882812 296.480469 78.828125 294.929688 79.59375 C 291.816406 81.183594 288.367188 82.074219 284.917969 82.210938 C 281.46875 82.371094 278.058594 81.683594 274.917969 80.539062 C 271.804688 79.339844 268.878906 77.683594 266.402344 75.527344 C 267.816406 76.363281 269.285156 77.035156 270.792969 77.628906 C 272.289062 78.222656 273.824219 78.691406 275.375 79.042969 C 278.476562 79.785156 281.640625 79.945312 284.6875 79.542969 C 287.734375 79.125 290.628906 78.046875 293.230469 76.496094 C 295.847656 74.945312 298.148438 72.871094 300.199219 70.582031 C 300.953125 69.746094 302.234375 69.679688 303.070312 70.421875 C 303.191406 70.527344 303.3125 70.664062 303.390625 70.796875 L 303.488281 70.933594 C 303.621094 71.148438 303.863281 71.472656 304.066406 71.726562 C 304.28125 72.011719 304.496094 72.28125 304.738281 72.550781 C 305.199219 73.089844 305.683594 73.613281 306.195312 74.113281 C 307.207031 75.109375 308.296875 76 309.457031 76.738281 C 311.773438 78.234375 314.363281 79.070312 316.976562 79.03125 C 319.589844 79.03125 322.21875 78.125 324.671875 76.738281 C 327.125 75.339844 329.386719 73.464844 331.503906 71.375 L 331.542969 71.335938 C 332.445312 70.445312 333.902344 70.460938 334.777344 71.363281 C 334.859375 71.445312 334.941406 71.539062 334.992188 71.621094 C 335.101562 71.765625 335.289062 72.011719 335.464844 72.210938 C 335.640625 72.414062 335.816406 72.628906 336.003906 72.832031 C 336.382812 73.234375 336.757812 73.640625 337.164062 74.03125 C 337.957031 74.8125 338.808594 75.527344 339.695312 76.160156 C 341.476562 77.425781 343.417969 78.382812 345.425781 78.691406 C 347.433594 79.042969 349.492188 78.71875 351.433594 77.84375 C 352.40625 77.414062 353.347656 76.820312 354.238281 76.144531 C 355.140625 75.484375 355.988281 74.71875 356.796875 73.894531 L 356.90625 73.789062 C 357.445312 73.234375 358.320312 73.234375 358.859375 73.773438 C 358.898438 73.816406 358.953125 73.871094 358.996094 73.921875 C 359.183594 74.164062 359.492188 74.503906 359.777344 74.785156 C 360.074219 75.082031 360.382812 75.363281 360.707031 75.632812 C 361.351562 76.171875 362.039062 76.683594 362.769531 77.128906 C 364.195312 78.058594 365.773438 78.8125 367.429688 79.3125 C 369.089844 79.824219 370.839844 80.160156 372.617188 80.242188 C 374.371094 80.335938 376.175781 80.253906 377.980469 79.984375 Z M 377.980469 79.984375 " fill-opacity="1" fill-rule="nonzero"/></g><g clip-path="url(#0626bec8b0)"><path fill="#0081c9" d="M 355.316406 85.523438 C 354.464844 85.980469 353.589844 86.464844 352.6875 86.855469 L 351.300781 87.382812 L 350.597656 87.640625 C 350.355469 87.71875 350.113281 87.773438 349.871094 87.839844 L 348.402344 88.203125 C 347.902344 88.3125 347.40625 88.351562 346.90625 88.433594 L 346.152344 88.527344 C 345.894531 88.554688 345.640625 88.554688 345.382812 88.570312 C 344.871094 88.582031 344.359375 88.609375 343.832031 88.59375 C 341.773438 88.515625 339.695312 88.125 337.714844 87.394531 C 336.71875 87.03125 335.761719 86.574219 334.832031 86.050781 C 334.402344 85.78125 333.957031 85.511719 333.539062 85.214844 C 331.394531 86.75 328.996094 88.015625 326.4375 88.824219 C 324.898438 89.324219 323.308594 89.605469 321.71875 89.78125 C 320.117188 89.929688 318.511719 89.914062 316.9375 89.742188 C 313.78125 89.417969 310.765625 88.445312 308.015625 87.085938 C 305.277344 85.710938 302.730469 83.960938 300.683594 81.75 C 303.367188 83.085938 306.101562 84.121094 308.863281 84.902344 C 311.625 85.660156 314.414062 86.128906 317.164062 86.144531 C 318.539062 86.144531 319.902344 86.074219 321.234375 85.859375 C 322.570312 85.644531 323.890625 85.335938 325.15625 84.902344 C 327.703125 84.042969 330.101562 82.722656 332.324219 81.105469 L 332.339844 81.105469 C 333.175781 80.5 334.304688 80.605469 335.007812 81.304688 L 335.167969 81.46875 C 335.234375 81.535156 335.304688 81.601562 335.382812 81.671875 C 335.53125 81.804688 335.679688 81.941406 335.855469 82.074219 C 336.164062 82.34375 336.53125 82.585938 336.867188 82.84375 C 337.582031 83.300781 338.320312 83.773438 339.117188 84.136719 C 340.679688 84.902344 342.378906 85.46875 344.144531 85.820312 C 345.035156 85.953125 345.921875 86.128906 346.839844 86.15625 C 347.296875 86.183594 347.753906 86.238281 348.214844 86.238281 L 349.613281 86.210938 C 349.84375 86.210938 350.085938 86.210938 350.316406 86.195312 L 351.015625 86.128906 L 352.445312 86.007812 C 353.386719 85.820312 354.332031 85.644531 355.316406 85.523438 Z M 355.316406 85.523438 " fill-opacity="1" fill-rule="nonzero"/></g><g clip-path="url(#a2d5960881)"><path fill="#21b8ed" d="M 428.679688 151.984375 C 426.96875 152.59375 425.164062 153.011719 423.316406 153.183594 C 421.472656 153.359375 419.570312 153.320312 417.710938 152.96875 C 415.851562 152.644531 414.019531 152.039062 412.28125 151.203125 C 411.417969 150.773438 410.582031 150.289062 409.789062 149.734375 C 409.425781 149.480469 409.074219 149.210938 408.722656 148.929688 C 407.320312 150.492188 405.691406 151.933594 403.738281 153.011719 C 401.351562 154.355469 398.425781 155.03125 395.597656 154.707031 C 392.765625 154.398438 390.152344 153.265625 387.917969 151.796875 C 386.796875 151.054688 385.746094 150.234375 384.761719 149.34375 C 384.414062 149.023438 384.074219 148.683594 383.738281 148.347656 C 381.933594 150.03125 379.953125 151.582031 377.726562 152.863281 C 374.804688 154.585938 371.328125 155.773438 367.6875 155.757812 C 364.050781 155.773438 360.492188 154.480469 357.648438 152.511719 C 356.21875 151.527344 354.925781 150.394531 353.753906 149.15625 C 353.175781 148.535156 352.621094 147.890625 352.109375 147.230469 C 352.097656 147.214844 352.082031 147.191406 352.070312 147.175781 C 351.421875 147.753906 350.734375 148.308594 350.035156 148.832031 C 348.660156 149.882812 347.179688 150.828125 345.628906 151.59375 C 342.515625 153.183594 339.066406 154.074219 335.617188 154.210938 C 332.164062 154.371094 328.757812 153.683594 325.617188 152.539062 C 322.503906 151.339844 319.578125 149.683594 317.097656 147.527344 C 318.515625 148.363281 319.984375 149.035156 321.492188 149.628906 C 322.988281 150.222656 324.523438 150.691406 326.074219 151.042969 C 329.175781 151.785156 332.339844 151.945312 335.386719 151.542969 C 338.433594 151.125 341.328125 150.046875 343.929688 148.496094 C 346.542969 146.945312 348.847656 144.871094 350.898438 142.582031 C 351.652344 141.746094 352.933594 141.679688 353.769531 142.421875 C 353.890625 142.527344 354.011719 142.664062 354.089844 142.796875 L 354.1875 142.933594 C 354.320312 143.148438 354.5625 143.472656 354.765625 143.726562 C 354.980469 144.011719 355.195312 144.28125 355.4375 144.550781 C 355.898438 145.089844 356.382812 145.613281 356.894531 146.113281 C 357.90625 147.109375 358.996094 148 360.15625 148.738281 C 362.472656 150.234375 365.0625 151.070312 367.675781 151.03125 C 370.289062 151.03125 372.917969 150.125 375.371094 148.738281 C 377.824219 147.339844 380.085938 145.464844 382.203125 143.375 L 382.242188 143.335938 C 383.144531 142.445312 384.601562 142.460938 385.476562 143.363281 C 385.558594 143.445312 385.636719 143.539062 385.691406 143.621094 C 385.800781 143.765625 385.988281 144.011719 386.164062 144.210938 C 386.339844 144.414062 386.515625 144.628906 386.703125 144.832031 C 387.082031 145.234375 387.457031 145.640625 387.863281 146.03125 C 388.65625 146.8125 389.507812 147.527344 390.394531 148.160156 C 392.175781 149.425781 394.113281 150.382812 396.121094 150.691406 C 398.132812 151.042969 400.191406 150.71875 402.132812 149.84375 C 403.105469 149.414062 404.046875 148.820312 404.9375 148.144531 C 405.839844 147.484375 406.6875 146.71875 407.496094 145.894531 L 407.605469 145.789062 C 408.144531 145.234375 409.019531 145.234375 409.558594 145.773438 C 409.597656 145.816406 409.652344 145.871094 409.691406 145.921875 C 409.882812 146.164062 410.191406 146.503906 410.476562 146.785156 C 410.769531 147.082031 411.082031 147.363281 411.40625 147.632812 C 412.050781 148.171875 412.738281 148.683594 413.464844 149.128906 C 414.894531 150.058594 416.472656 150.8125 418.128906 151.3125 C 419.785156 151.824219 421.539062 152.160156 423.316406 152.242188 C 425.070312 152.335938 426.875 152.253906 428.679688 151.984375 Z M 428.679688 151.984375 " fill-opacity="1" fill-rule="nonzero"/></g><g clip-path="url(#6b591971e2)"><path fill="#0081c9" d="M 406.015625 157.523438 C 405.164062 157.980469 404.289062 158.464844 403.386719 158.855469 L 402 159.382812 L 401.296875 159.640625 C 401.054688 159.71875 400.8125 159.773438 400.570312 159.839844 L 399.101562 160.203125 C 398.601562 160.3125 398.105469 160.351562 397.605469 160.433594 L 396.851562 160.527344 C 396.59375 160.554688 396.339844 160.554688 396.082031 160.570312 C 395.570312 160.582031 395.058594 160.609375 394.53125 160.59375 C 392.472656 160.515625 390.394531 160.125 388.414062 159.394531 C 387.417969 159.03125 386.460938 158.574219 385.53125 158.050781 C 385.097656 157.78125 384.65625 157.511719 384.238281 157.214844 C 382.09375 158.75 379.695312 160.015625 377.136719 160.824219 C 375.597656 161.324219 374.007812 161.605469 372.417969 161.78125 C 370.816406 161.929688 369.210938 161.914062 367.632812 161.742188 C 364.480469 161.417969 361.460938 160.445312 358.714844 159.085938 C 355.976562 157.710938 353.429688 155.960938 351.382812 153.75 C 354.0625 155.085938 356.800781 156.121094 359.5625 156.902344 C 362.324219 157.660156 365.113281 158.128906 367.863281 158.144531 C 369.238281 158.144531 370.597656 158.074219 371.933594 157.859375 C 373.269531 157.644531 374.589844 157.335938 375.855469 156.902344 C 378.402344 156.042969 380.800781 154.722656 383.023438 153.105469 L 383.039062 153.105469 C 383.875 152.5 385.003906 152.605469 385.707031 153.304688 L 385.867188 153.46875 C 385.933594 153.535156 386.003906 153.601562 386.082031 153.671875 C 386.230469 153.804688 386.378906 153.941406 386.554688 154.074219 C 386.863281 154.34375 387.230469 154.585938 387.566406 154.84375 C 388.28125 155.300781 389.019531 155.773438 389.816406 156.136719 C 391.378906 156.902344 393.078125 157.46875 394.84375 157.820312 C 395.730469 157.953125 396.621094 158.128906 397.539062 158.15625 C 397.996094 158.183594 398.453125 158.238281 398.914062 158.238281 L 400.3125 158.210938 C 400.542969 158.210938 400.785156 158.210938 401.015625 158.195312 L 401.714844 158.128906 L 403.144531 158.007812 C 404.085938 157.820312 405.03125 157.644531 406.015625 157.523438 Z M 406.015625 157.523438 " fill-opacity="1" fill-rule="nonzero"/></g><g clip-path="url(#d3502d20a0)"><path fill="#21b8ed" d="M 321.925781 131.664062 C 320.214844 132.273438 318.40625 132.6875 316.5625 132.863281 C 314.714844 133.039062 312.816406 133 310.957031 132.648438 C 309.09375 132.324219 307.261719 131.71875 305.523438 130.882812 C 304.660156 130.453125 303.828125 129.96875 303.03125 129.414062 C 302.667969 129.160156 302.316406 128.890625 301.96875 128.605469 C 300.566406 130.167969 298.933594 131.613281 296.980469 132.6875 C 294.59375 134.035156 291.671875 134.710938 288.839844 134.386719 C 286.011719 134.078125 283.398438 132.945312 281.160156 131.476562 C 280.042969 130.734375 278.988281 129.914062 278.007812 129.023438 C 277.65625 128.703125 277.320312 128.363281 276.980469 128.027344 C 275.175781 129.710938 273.195312 131.261719 270.972656 132.542969 C 268.046875 134.265625 264.570312 135.453125 260.933594 135.4375 C 257.292969 135.453125 253.734375 134.15625 250.894531 132.191406 C 249.464844 131.207031 248.171875 130.074219 247 128.835938 C 246.417969 128.214844 245.867188 127.570312 245.355469 126.910156 C 245.339844 126.894531 245.328125 126.867188 245.3125 126.855469 C 244.667969 127.433594 243.980469 127.988281 243.277344 128.511719 C 241.902344 129.5625 240.421875 130.507812 238.871094 131.273438 C 235.757812 132.863281 232.308594 133.753906 228.859375 133.886719 C 225.410156 134.050781 222 133.363281 218.859375 132.21875 C 215.746094 131.019531 212.824219 129.363281 210.34375 127.207031 C 211.757812 128.042969 213.226562 128.714844 214.738281 129.308594 C 216.230469 129.902344 217.769531 130.371094 219.320312 130.722656 C 222.417969 131.464844 225.585938 131.625 228.628906 131.222656 C 231.675781 130.804688 234.574219 129.726562 237.175781 128.175781 C 239.789062 126.625 242.09375 124.550781 244.140625 122.261719 C 244.894531 121.425781 246.175781 121.359375 247.011719 122.097656 C 247.132812 122.207031 247.253906 122.34375 247.335938 122.476562 L 247.429688 122.613281 C 247.5625 122.828125 247.808594 123.152344 248.007812 123.40625 C 248.222656 123.6875 248.441406 123.957031 248.683594 124.226562 C 249.140625 124.765625 249.625 125.292969 250.136719 125.792969 C 251.148438 126.789062 252.242188 127.675781 253.398438 128.417969 C 255.71875 129.914062 258.304688 130.75 260.917969 130.707031 C 263.535156 130.707031 266.160156 129.804688 268.613281 128.417969 C 271.066406 127.015625 273.332031 125.144531 275.445312 123.054688 L 275.488281 123.015625 C 276.390625 122.125 277.84375 122.140625 278.722656 123.042969 C 278.800781 123.125 278.882812 123.21875 278.9375 123.296875 C 279.042969 123.445312 279.234375 123.6875 279.40625 123.890625 C 279.582031 124.09375 279.757812 124.308594 279.945312 124.511719 C 280.324219 124.914062 280.703125 125.320312 281.105469 125.710938 C 281.902344 126.492188 282.75 127.207031 283.640625 127.839844 C 285.417969 129.105469 287.359375 130.0625 289.367188 130.371094 C 291.375 130.722656 293.4375 130.398438 295.378906 129.523438 C 296.347656 129.09375 297.289062 128.5 298.179688 127.824219 C 299.082031 127.164062 299.933594 126.398438 300.742188 125.574219 L 300.847656 125.46875 C 301.386719 124.914062 302.261719 124.914062 302.800781 125.453125 C 302.84375 125.496094 302.898438 125.546875 302.9375 125.601562 C 303.125 125.84375 303.4375 126.183594 303.71875 126.464844 C 304.015625 126.761719 304.324219 127.042969 304.648438 127.3125 C 305.296875 127.851562 305.984375 128.363281 306.710938 128.808594 C 308.140625 129.738281 309.714844 130.492188 311.375 130.992188 C 313.03125 131.503906 314.78125 131.839844 316.5625 131.921875 C 318.3125 132.015625 320.117188 131.933594 321.925781 131.664062 Z M 321.925781 131.664062 " fill-opacity="1" fill-rule="nonzero"/></g><g clip-path="url(#0ae35b8efe)"><path fill="#0081c9" d="M 299.257812 137.203125 C 298.410156 137.660156 297.535156 138.144531 296.628906 138.535156 L 295.242188 139.0625 L 294.542969 139.316406 C 294.300781 139.398438 294.054688 139.453125 293.8125 139.519531 L 292.34375 139.882812 C 291.847656 139.992188 291.347656 140.03125 290.847656 140.113281 L 290.09375 140.207031 C 289.839844 140.234375 289.582031 140.234375 289.328125 140.246094 C 288.8125 140.261719 288.300781 140.289062 287.777344 140.273438 C 285.714844 140.195312 283.640625 139.804688 281.660156 139.074219 C 280.660156 138.710938 279.703125 138.253906 278.773438 137.726562 C 278.34375 137.457031 277.898438 137.1875 277.480469 136.894531 C 275.339844 138.429688 272.941406 139.695312 270.378906 140.503906 C 268.84375 141.003906 267.253906 141.285156 265.664062 141.460938 C 264.058594 141.609375 262.457031 141.59375 260.878906 141.417969 C 257.726562 141.097656 254.707031 140.125 251.957031 138.765625 C 249.222656 137.390625 246.675781 135.640625 244.625 133.429688 C 247.308594 134.765625 250.042969 135.800781 252.804688 136.582031 C 255.570312 137.335938 258.359375 137.808594 261.109375 137.824219 C 262.480469 137.824219 263.84375 137.753906 265.175781 137.539062 C 266.511719 137.324219 267.832031 137.015625 269.097656 136.582031 C 271.644531 135.722656 274.042969 134.402344 276.269531 132.785156 L 276.28125 132.785156 C 277.117188 132.175781 278.25 132.285156 278.949219 132.984375 L 279.113281 133.148438 C 279.179688 133.214844 279.246094 133.28125 279.328125 133.347656 C 279.476562 133.484375 279.625 133.617188 279.796875 133.753906 C 280.109375 134.023438 280.472656 134.265625 280.808594 134.523438 C 281.523438 134.980469 282.265625 135.453125 283.058594 135.816406 C 284.625 136.582031 286.320312 137.148438 288.085938 137.5 C 288.976562 137.632812 289.867188 137.808594 290.78125 137.835938 C 291.238281 137.863281 291.699219 137.917969 292.15625 137.917969 L 293.558594 137.890625 C 293.785156 137.890625 294.03125 137.890625 294.257812 137.875 L 294.960938 137.808594 L 296.386719 137.6875 C 297.332031 137.5 298.273438 137.324219 299.257812 137.203125 Z M 299.257812 137.203125 " fill-opacity="1" fill-rule="nonzero"/></g><g clip-path="url(#1828885812)"><path fill="#21b8ed" d="M 201.449219 100.308594 C 199.738281 100.914062 197.933594 101.332031 196.085938 101.507812 C 194.242188 101.679688 192.339844 101.640625 190.480469 101.289062 C 188.621094 100.96875 186.789062 100.359375 185.050781 99.527344 C 184.1875 99.09375 183.351562 98.609375 182.558594 98.058594 C 182.195312 97.800781 181.84375 97.53125 181.492188 97.25 C 180.089844 98.8125 178.460938 100.253906 176.507812 101.332031 C 174.121094 102.679688 171.199219 103.351562 168.367188 103.027344 C 165.539062 102.71875 162.921875 101.585938 160.6875 100.117188 C 159.566406 99.378906 158.515625 98.554688 157.53125 97.667969 C 157.183594 97.34375 156.84375 97.007812 156.507812 96.667969 C 154.703125 98.351562 152.722656 99.902344 150.5 101.183594 C 147.574219 102.90625 144.097656 104.09375 140.457031 104.078125 C 136.820312 104.09375 133.261719 102.800781 130.417969 100.832031 C 128.992188 99.847656 127.695312 98.71875 126.523438 97.476562 C 125.945312 96.859375 125.390625 96.210938 124.878906 95.550781 C 124.867188 95.539062 124.851562 95.511719 124.839844 95.496094 C 124.191406 96.078125 123.503906 96.628906 122.804688 97.152344 C 121.429688 98.207031 119.949219 99.148438 118.398438 99.917969 C 115.285156 101.507812 111.835938 102.394531 108.386719 102.53125 C 104.9375 102.691406 101.527344 102.003906 98.386719 100.859375 C 95.273438 99.660156 92.347656 98.003906 89.871094 95.847656 C 91.285156 96.683594 92.753906 97.355469 94.261719 97.949219 C 95.757812 98.542969 97.292969 99.011719 98.84375 99.363281 C 101.945312 100.105469 105.109375 100.265625 108.15625 99.863281 C 111.203125 99.445312 114.097656 98.367188 116.699219 96.816406 C 119.316406 95.269531 121.617188 93.191406 123.667969 90.902344 C 124.421875 90.066406 125.703125 90 126.539062 90.742188 C 126.660156 90.847656 126.78125 90.984375 126.859375 91.117188 L 126.957031 91.253906 C 127.089844 91.46875 127.332031 91.792969 127.535156 92.046875 C 127.75 92.332031 127.964844 92.601562 128.207031 92.871094 C 128.667969 93.410156 129.152344 93.933594 129.664062 94.433594 C 130.675781 95.429688 131.765625 96.320312 132.925781 97.058594 C 135.242188 98.554688 137.832031 99.390625 140.445312 99.351562 C 143.058594 99.351562 145.6875 98.449219 148.140625 97.058594 C 150.59375 95.660156 152.855469 93.785156 154.972656 91.699219 L 155.011719 91.65625 C 155.914062 90.769531 157.371094 90.78125 158.246094 91.683594 C 158.328125 91.765625 158.410156 91.859375 158.460938 91.941406 C 158.570312 92.089844 158.757812 92.332031 158.933594 92.53125 C 159.109375 92.734375 159.285156 92.949219 159.472656 93.152344 C 159.851562 93.558594 160.226562 93.960938 160.632812 94.351562 C 161.425781 95.132812 162.277344 95.847656 163.164062 96.480469 C 164.945312 97.746094 166.886719 98.703125 168.894531 99.011719 C 170.902344 99.363281 172.960938 99.039062 174.902344 98.164062 C 175.875 97.734375 176.816406 97.140625 177.707031 96.46875 C 178.609375 95.808594 179.457031 95.039062 180.265625 94.21875 L 180.375 94.109375 C 180.914062 93.558594 181.789062 93.558594 182.328125 94.097656 C 182.367188 94.136719 182.421875 94.191406 182.464844 94.242188 C 182.652344 94.488281 182.960938 94.824219 183.246094 95.105469 C 183.542969 95.402344 183.851562 95.6875 184.175781 95.957031 C 184.820312 96.492188 185.507812 97.007812 186.238281 97.449219 C 187.664062 98.378906 189.242188 99.132812 190.898438 99.632812 C 192.558594 100.144531 194.308594 100.480469 196.085938 100.5625 C 197.839844 100.65625 199.644531 100.578125 201.449219 100.308594 Z M 201.449219 100.308594 " fill-opacity="1" fill-rule="nonzero"/></g><g clip-path="url(#2b6890913f)"><path fill="#0081c9" d="M 178.785156 105.84375 C 177.933594 106.300781 177.058594 106.789062 176.15625 107.179688 L 174.769531 107.703125 L 174.066406 107.960938 C 173.824219 108.039062 173.582031 108.09375 173.339844 108.160156 L 171.871094 108.527344 C 171.371094 108.632812 170.875 108.671875 170.375 108.753906 L 169.621094 108.847656 C 169.363281 108.875 169.109375 108.875 168.851562 108.890625 C 168.339844 108.902344 167.828125 108.929688 167.300781 108.917969 C 165.242188 108.835938 163.164062 108.445312 161.183594 107.71875 C 160.1875 107.351562 159.230469 106.894531 158.300781 106.371094 C 157.871094 106.101562 157.425781 105.832031 157.007812 105.535156 C 154.863281 107.070312 152.464844 108.335938 149.90625 109.144531 C 148.367188 109.644531 146.777344 109.925781 145.1875 110.101562 C 143.585938 110.25 141.980469 110.238281 140.40625 110.0625 C 137.25 109.738281 134.234375 108.769531 131.484375 107.40625 C 128.746094 106.03125 126.199219 104.28125 124.152344 102.070312 C 126.835938 103.40625 129.570312 104.441406 132.332031 105.222656 C 135.09375 105.980469 137.882812 106.449219 140.632812 106.464844 C 142.007812 106.464844 143.371094 106.398438 144.703125 106.179688 C 146.039062 105.964844 147.359375 105.65625 148.625 105.222656 C 151.171875 104.363281 153.570312 103.042969 155.792969 101.425781 L 155.808594 101.425781 C 156.644531 100.820312 157.773438 100.925781 158.476562 101.628906 L 158.636719 101.789062 C 158.703125 101.855469 158.773438 101.921875 158.851562 101.992188 C 159 102.125 159.148438 102.261719 159.324219 102.394531 C 159.636719 102.664062 160 102.90625 160.335938 103.164062 C 161.050781 103.621094 161.792969 104.09375 162.585938 104.457031 C 164.148438 105.222656 165.847656 105.789062 167.613281 106.140625 C 168.503906 106.277344 169.390625 106.449219 170.308594 106.476562 C 170.765625 106.503906 171.222656 106.558594 171.683594 106.558594 L 173.082031 106.53125 C 173.3125 106.53125 173.554688 106.53125 173.785156 106.519531 L 174.484375 106.449219 L 175.914062 106.328125 C 176.855469 106.140625 177.800781 105.964844 178.785156 105.84375 Z M 178.785156 105.84375 " fill-opacity="1" fill-rule="nonzero"/></g><g clip-path="url(#a1e6af870e)"><path fill="#21b8ed" d="M 434.039062 32.460938 C 432.328125 33.070312 430.523438 33.484375 428.675781 33.660156 C 426.828125 33.835938 424.929688 33.796875 423.070312 33.445312 C 421.210938 33.121094 419.378906 32.515625 417.640625 31.679688 C 416.777344 31.25 415.941406 30.765625 415.144531 30.210938 C 414.78125 29.957031 414.433594 29.6875 414.082031 29.402344 C 412.679688 30.964844 411.050781 32.410156 409.09375 33.484375 C 406.710938 34.832031 403.785156 35.507812 400.957031 35.183594 C 398.125 34.875 395.511719 33.742188 393.273438 32.273438 C 392.15625 31.53125 391.105469 30.710938 390.121094 29.820312 C 389.769531 29.5 389.433594 29.160156 389.097656 28.824219 C 387.289062 30.507812 385.308594 32.058594 383.085938 33.339844 C 380.164062 35.0625 376.683594 36.25 373.046875 36.234375 C 369.410156 36.25 365.851562 34.953125 363.007812 32.988281 C 361.578125 32.003906 360.285156 30.871094 359.113281 29.632812 C 358.53125 29.011719 357.980469 28.367188 357.46875 27.707031 C 357.453125 27.691406 357.441406 27.664062 357.429688 27.652344 C 356.78125 28.230469 356.09375 28.785156 355.394531 29.308594 C 354.019531 30.359375 352.535156 31.304688 350.988281 32.070312 C 347.875 33.660156 344.421875 34.550781 340.972656 34.683594 C 337.523438 34.847656 334.113281 34.160156 330.976562 33.015625 C 327.863281 31.816406 324.9375 30.160156 322.457031 28.003906 C 323.871094 28.839844 325.339844 29.511719 326.851562 30.105469 C 328.347656 30.695312 329.882812 31.167969 331.433594 31.519531 C 334.53125 32.261719 337.699219 32.421875 340.746094 32.015625 C 343.789062 31.601562 346.6875 30.523438 349.289062 28.972656 C 351.902344 27.421875 354.207031 25.347656 356.253906 23.058594 C 357.011719 22.222656 358.289062 22.15625 359.125 22.894531 C 359.246094 23.003906 359.367188 23.140625 359.449219 23.273438 L 359.542969 23.410156 C 359.679688 23.625 359.921875 23.945312 360.125 24.203125 C 360.339844 24.484375 360.554688 24.753906 360.796875 25.023438 C 361.253906 25.5625 361.742188 26.089844 362.253906 26.589844 C 363.261719 27.585938 364.355469 28.472656 365.515625 29.214844 C 367.832031 30.710938 370.417969 31.546875 373.035156 31.503906 C 375.648438 31.503906 378.277344 30.601562 380.726562 29.214844 C 383.179688 27.8125 385.445312 25.941406 387.558594 23.851562 L 387.601562 23.8125 C 388.503906 22.921875 389.960938 22.9375 390.835938 23.839844 C 390.914062 23.921875 390.996094 24.015625 391.050781 24.09375 C 391.160156 24.242188 391.347656 24.484375 391.523438 24.6875 C 391.699219 24.890625 391.871094 25.105469 392.0625 25.308594 C 392.4375 25.710938 392.816406 26.117188 393.21875 26.507812 C 394.015625 27.289062 394.863281 28.003906 395.753906 28.636719 C 397.53125 29.902344 399.472656 30.859375 401.480469 31.167969 C 403.488281 31.519531 405.550781 31.195312 407.492188 30.320312 C 408.460938 29.890625 409.40625 29.296875 410.292969 28.621094 C 411.199219 27.960938 412.046875 27.195312 412.855469 26.371094 L 412.960938 26.265625 C 413.5 25.710938 414.378906 25.710938 414.917969 26.25 C 414.957031 26.292969 415.011719 26.34375 415.050781 26.398438 C 415.238281 26.640625 415.550781 26.980469 415.832031 27.261719 C 416.128906 27.558594 416.441406 27.839844 416.761719 28.109375 C 417.410156 28.648438 418.097656 29.160156 418.824219 29.605469 C 420.253906 30.535156 421.828125 31.289062 423.488281 31.789062 C 425.144531 32.300781 426.898438 32.636719 428.675781 32.71875 C 430.425781 32.8125 432.234375 32.730469 434.039062 32.460938 Z M 434.039062 32.460938 " fill-opacity="1" fill-rule="nonzero"/></g><g clip-path="url(#dfe6e8eba9)"><path fill="#0081c9" d="M 411.371094 38 C 410.523438 38.457031 409.648438 38.941406 408.746094 39.332031 L 407.355469 39.859375 L 406.65625 40.113281 C 406.414062 40.195312 406.171875 40.25 405.929688 40.316406 L 404.460938 40.679688 C 403.960938 40.789062 403.460938 40.828125 402.964844 40.910156 L 402.207031 41.003906 C 401.953125 41.03125 401.695312 41.03125 401.441406 41.042969 C 400.929688 41.058594 400.417969 41.085938 399.890625 41.070312 C 397.828125 40.992188 395.753906 40.601562 393.773438 39.871094 C 392.777344 39.507812 391.820312 39.050781 390.890625 38.523438 C 390.457031 38.253906 390.011719 37.984375 389.59375 37.691406 C 387.453125 39.226562 385.054688 40.492188 382.492188 41.300781 C 380.957031 41.800781 379.367188 42.082031 377.777344 42.257812 C 376.171875 42.40625 374.570312 42.390625 372.992188 42.214844 C 369.839844 41.894531 366.820312 40.921875 364.070312 39.5625 C 361.335938 38.1875 358.789062 36.4375 356.742188 34.226562 C 359.421875 35.5625 362.15625 36.597656 364.921875 37.378906 C 367.683594 38.132812 370.472656 38.605469 373.222656 38.621094 C 374.597656 38.621094 375.957031 38.550781 377.292969 38.335938 C 378.625 38.121094 379.945312 37.8125 381.214844 37.378906 C 383.761719 36.515625 386.160156 35.195312 388.382812 33.582031 L 388.394531 33.582031 C 389.230469 32.972656 390.363281 33.082031 391.0625 33.78125 L 391.226562 33.945312 C 391.292969 34.011719 391.359375 34.078125 391.441406 34.144531 C 391.589844 34.28125 391.738281 34.414062 391.914062 34.550781 C 392.222656 34.820312 392.585938 35.0625 392.925781 35.320312 C 393.636719 35.777344 394.378906 36.25 395.175781 36.613281 C 396.738281 37.378906 398.4375 37.945312 400.199219 38.296875 C 401.089844 38.429688 401.980469 38.605469 402.894531 38.632812 C 403.355469 38.660156 403.8125 38.714844 404.269531 38.714844 L 405.671875 38.6875 C 405.902344 38.6875 406.144531 38.6875 406.371094 38.671875 L 407.074219 38.605469 L 408.503906 38.484375 C 409.445312 38.296875 410.390625 38.121094 411.371094 38 Z M 411.371094 38 " fill-opacity="1" fill-rule="nonzero"/></g></svg>