<svg xmlns="http://www.w3.org/2000/svg" xmlns:xlink="http://www.w3.org/1999/xlink" width="500" zoomAndPan="magnify" viewBox="0 0 375 374.999991" height="500" preserveAspectRatio="xMidYMid meet" version="1.0"><defs><clipPath id="296f2d4228"><path d="M 69 69 L 306 69 L 306 306 L 69 306 Z M 69 69 " clip-rule="nonzero"/></clipPath><clipPath id="0a59db5dd4"><path d="M 266.285156 69.84375 L 305.152344 108.707031 L 108.707031 305.152344 L 69.839844 266.289062 Z M 266.285156 69.84375 " clip-rule="nonzero"/></clipPath><clipPath id="12cfbda103"><path d="M 69 69 L 306 69 L 306 306 L 69 306 Z M 69 69 " clip-rule="nonzero"/></clipPath><clipPath id="f679731276"><path d="M 69.847656 108.707031 L 108.714844 69.84375 L 305.15625 266.289062 L 266.292969 305.152344 Z M 69.847656 108.707031 " clip-rule="nonzero"/></clipPath></defs><g clip-path="url(#296f2d4228)"><g clip-path="url(#0a59db5dd4)"><path fill="#ff6666" d="M 266.285156 69.84375 L 305.152344 108.707031 L 108.703125 305.152344 L 69.839844 266.289062 Z M 266.285156 69.84375 " fill-opacity="1" fill-rule="nonzero"/></g></g><g clip-path="url(#12cfbda103)"><g clip-path="url(#f679731276)"><path fill="#ff6666" d="M 69.847656 108.707031 L 108.714844 69.84375 L 305.160156 266.289062 L 266.292969 305.152344 Z M 69.847656 108.707031 " fill-opacity="1" fill-rule="nonzero"/></g></g></svg>