<svg xmlns="http://www.w3.org/2000/svg" xmlns:xlink="http://www.w3.org/1999/xlink" width="500" zoomAndPan="magnify" viewBox="0 0 375 374.999991" height="500" preserveAspectRatio="xMidYMid meet" version="1.0"><defs><clipPath id="0cff52116a"><path d="M 108 69 L 344 69 L 344 305 L 108 305 Z M 108 69 " clip-rule="nonzero"/></clipPath><clipPath id="61da5f56e1"><path d="M 304.9375 69.605469 L 343.800781 108.472656 L 147.355469 304.917969 L 108.492188 266.050781 Z M 304.9375 69.605469 " clip-rule="nonzero"/></clipPath><clipPath id="78332de033"><path d="M 31 150 L 186 150 L 186 306 L 31 306 Z M 31 150 " clip-rule="nonzero"/></clipPath><clipPath id="85457c739c"><path d="M 31.195312 189.65625 L 70.058594 150.792969 L 185.792969 266.527344 L 146.929688 305.390625 Z M 31.195312 189.65625 " clip-rule="nonzero"/></clipPath></defs><g clip-path="url(#0cff52116a)"><g clip-path="url(#61da5f56e1)"><path fill="#66ff66" d="M 304.9375 69.605469 L 343.800781 108.472656 L 147.355469 304.917969 L 108.492188 266.054688 Z M 304.9375 69.605469 " fill-opacity="1" fill-rule="nonzero"/></g></g><g clip-path="url(#78332de033)"><g clip-path="url(#85457c739c)"><path fill="#66ff66" d="M 31.195312 189.65625 L 70.058594 150.792969 L 185.742188 266.476562 L 146.875 305.339844 Z M 31.195312 189.65625 " fill-opacity="1" fill-rule="nonzero"/></g></g></svg>